<svg version="1" xmlns="http://www.w3.org/2000/svg" width="682.667" height="682.667" viewBox="0 0 512.000000 512.000000"><path d="M21.5.7c-1.6.3-3.6 1-4.3 1.6-2.5 2-6.4 11-8.9 20.6C5.1 35.1 4.1 59.2 6.1 78 7.9 95.9 7.8 98.4 4 108 .7 116.1.6 117.1.5 130c0 11.6.3 14.5 2.4 20.8 2.7 8.3 10.8 22.5 18.1 31.8 2.8 3.5 5 6.9 5 7.5 0 .6-2 6.1-4.4 12.2-6.3 15.8-10.9 34.6-15.1 62.4-.8 5.1-1.6 4.9 12.5 2.4 33.8-6.1 74.3-4.3 108.4 4.8 13.6 3.7 15.6 5 15.6 10 0 3.8-1.6 6.1-5.1 7.4-.9.3-7.6-1-15-2.9-23.3-5.9-32.2-6.9-61.9-6.8-26.6 0-28.9.2-50.7 4.6l-6.2 1.2-.7 7.5c-.8 8.5-.1 47.2.9 48.8.5.7 3.2-.6 7.4-3.4 10.3-6.8 31.4-16.7 44.8-21.2 26.9-8.8 52.1-12.4 83.1-11.9l19.6.3 2.4 2.8c2.9 3.4 3 5.6.3 9.1l-2 2.6h-19.4c-35.1 0-58.2 3.9-87.7 14.7-11.1 4-21.6 9.2-33.5 16.5-5.4 3.3-9 4.9-10.3 4.5-2.8-.7-2.6 1.6 1.1 14.6 3.8 12.8 6.8 17.8 20.2 33.3 11.4 13.2 25.5 26.7 42.8 41 32.3 26.6 63.3 41.7 113.2 55.4 54.8 14.9 84.6 14.9 139.4 0 37.5-10.3 67.7-23.1 90.7-38.4 29.6-19.8 72.8-62 81.1-79.1 2.7-5.7 7.5-21.5 7.5-25 0-1.8-.4-2.2-2-1.8-1.3.4-4.9-1.2-10.3-4.5-21.9-13.4-44.8-22.2-71.5-27.2-16.8-3.1-27.1-4-48.9-4h-20.2l-2-2.6c-2.7-3.5-2.6-5.7.3-9.1l2.4-2.8 19.6-.3c31-.5 56.2 3.1 83.1 11.9 13.4 4.5 34.5 14.4 44.8 21.2 4.2 2.8 6.9 4.1 7.4 3.4 1-1.6 1.7-40.3.9-48.8l-.7-7.5-6.2-1.2c-21.8-4.4-24.1-4.6-50.7-4.6-29.7-.1-38.6.9-61.9 6.8-7.4 1.9-14.1 3.2-15 2.9-3.5-1.3-5.1-3.6-5.1-7.4 0-5 2-6.3 15.7-10 33.7-9.1 74.5-10.9 108.3-4.8 14.1 2.5 13.3 2.7 12.5-2.4-4.3-28.1-9.2-48.1-15.8-64.2l-4.4-10.9 4.9-6c6.9-8.6 15.5-23.1 18.6-31.8 2.4-6.6 2.7-8.6 2.7-21.3-.1-13.5-.2-14.3-3.4-22.5-3.9-9.6-4-12.1-2.2-30 2-18.8 1-42.9-2.2-55.1-2.5-9.6-6.4-18.6-8.9-20.6-8.6-6.8-46.5 4.7-96 29.2L382 39.7l-8.7-4.3c-23.1-11.4-49-9.1-69 6.1l-6.3 4.7-11.2-1.3c-14.5-1.7-47.1-1.7-61.4 0l-11.2 1.2-6.8-4.9c-8.3-6-16.2-9.5-26.6-11.6-14.8-3.1-28-1.2-42.1 5.8l-8.7 4.3-16.8-8.2C92.4 21.2 66.4 10.1 53.4 6.1 44.3 3.2 28.3-.2 25.6.1c-.6.1-2.4.4-4.1.6zm107.1 360.8c12.4 4.2 44.3 12.6 60.9 16 14.6 3 26.8 4.5 47 6 17.7 1.3 22.2 1.3 39.5 0 22.6-1.7 32.1-3.1 55.5-7.9 22-4.5 29.6-6.6 49-13.1 8.7-3 16.1-5.2 16.4-5 .7.8-3.7 17.6-6.6 24.9-1.6 3.7-4.4 8.6-6.3 10.8-3.1 3.5-4.1 4-7.6 4-6.2-.1-11.3-2.7-16.5-8.3l-4.6-5-9.4 4.2c-12.3 5.4-40.9 15.4-52.9 18.4-11.2 2.9-29 5.5-37 5.5-20.2 0-54.5-8.8-84.3-21.5l-15.1-6.5-4.5 4.9c-7.3 7.9-16.4 10.5-21.9 6.4-3.8-2.8-7.7-10.3-11.2-21.3-2.9-9.6-4.6-17-3.8-17 .3 0 6.3 2 13.4 4.5z"/></svg>